PathFileType	4	(X/Y/Z)	C:\Users\°ÂÌØÂü\Desktop\20210112\bx_y_0_1802-Unnamed.trc
DataRate	CameraRate	NumFrames	NumMarkers	Units	OrigDataRate	OrigDataStartFrame	OrigNumFrames
50.00	50.00	       5	0	mm	50.00	235	       375
Frame#	Time	
		

235	4.680	-669.76630	244.48389	626.17419	-709.34174	76.81395	212.62825	-703.70380	267.75919	875.87238	-626.64423	203.77463	835.23126	-602.28046	205.95880	518.96777	-698.23926	267.61090	739.42346	-619.67145	59.40965	574.69214	-654.23053	243.57567	568.67725	-609.00208	-2.80550	502.75989	-703.98596	251.27626	499.68469	-692.15686	-69.80941	702.27637	-559.61969	-99.98271	1464.92102	-666.82471	-68.15387	161.51530	-704.15289	149.33400	210.66771	-766.77246	219.83852	206.83475	-882.59692	296.07486	144.66753	-602.68158	17.51792	167.62440	-674.68701	171.90665	154.09180	-594.81732	222.66223	173.68333	-667.05774	297.00500	162.30583	-561.01477	262.84476	165.44431	-527.99902	304.12732	146.59570	-543.22717	87.63552	1772.67346	-569.45508	263.12491	1470.63892	-625.70477	-80.15556	157.78886	-517.63080	-72.83233	143.15431	-630.01788	304.66882	162.78329	-544.52997	75.33382	1340.05249	-763.42084	-3.97992	207.70444	-791.27417	59.85587	177.05193	-793.52216	168.34731	186.83325	-686.32721	-26.53751	1018.89783	-714.26660	-46.01237	481.91129	-875.85522	-78.73365	141.22168	-681.62140	193.15723	1032.94299	-652.00885	-47.76629	605.41522	-653.75757	-43.96014	554.65375	-561.43304	-44.46160	162.51152	-883.65533	71.45539	1045.91687				-625.43530	-29.34798	817.81689	-608.72974	144.79808	573.62146	-673.58429	55.64759	157.24477				-701.29333	-94.44955	848.63861	
236	4.700	-671.32281	243.77495	627.08380	-708.48132	77.32107	213.11314	-701.47614	267.08188	876.81403	-625.23816	203.50166	835.23285	-604.27423	205.10759	519.97339	-698.02899	267.08734	740.82440	-623.85370	60.55827	574.08582	-656.75061	243.07115	569.39313	-610.71454	-1.91727	503.45810	-706.35083	251.02040	500.20349	-692.69440	-68.78127	703.09888	-562.77600	-100.33603	1470.57788	-666.76660	-68.20675	161.50200	-704.37878	149.28334	210.90019	-766.79993	219.84296	206.77899	-882.52661	296.11301	144.67570	-602.80145	17.48239	167.72430	-674.59436	171.77861	154.49814	-594.90735	222.65627	173.70926	-667.07867	297.06580	162.32712	-561.25714	262.76904	165.42482	-527.99902	304.12732	146.59570	-549.50928	87.75738	1778.29517	-573.04144	262.99255	1475.44165	-625.78027	-80.09835	157.61705	-517.69141	-72.62638	143.03920	-630.05939	305.13620	163.35486	-546.45679	74.75911	1345.48706	-763.41248	-4.17693	207.50407	-791.56647	59.49239	177.06781	-793.49048	168.53183	186.56509	-683.61334	-27.15533	1021.99481	-715.73956	-46.08240	482.40112	-876.01440	-78.59771	141.44893	-678.94568	193.12083	1036.53845	-653.79755	-47.40229	606.04425	-656.04114	-42.97606	555.27081	-561.35004	-44.25459	162.38870	-881.38049	71.06427	1047.61304				-624.13855	-29.18663	818.37872	-611.27661	143.86896	574.11096	-673.76526	55.54789	157.64262				-699.59467	-94.73830	850.34473	
237	4.720	-673.24353	243.43483	627.85126	-708.60864	77.28762	213.20796	-699.68549	265.99942	877.52155	-624.21924	202.91580	835.82660	-606.98865	204.36552	521.01245	-697.88599	266.27011	741.69580	-626.02844	61.35521	574.59216	-658.59283	242.41116	569.91479	-612.89038	-1.23855	503.66101	-708.35358	250.36417	500.14224	-692.92383	-68.31532	704.10217	-566.16248	-100.68846	1476.16467	-666.81879	-68.22604	161.45299	-704.42761	149.41989	211.44847	-766.91815	219.88730	206.68768	-882.57678	296.10559	144.62018	-602.92316	17.65339	167.78299	-674.67651	172.04025	154.07776	-595.11694	222.61337	173.68942	-667.11127	297.13818	162.23512	-561.30243	262.69263	165.44463	-527.90320	304.06342	146.53278	-555.76196	87.96751	1783.71497	-576.66925	262.77969	1480.33521	-625.64178	-80.32407	157.79199	-517.88641	-72.67552	142.96140	-630.17657	304.79245	162.89896	-547.57227	74.51449	1350.98254	-763.64209	-4.07746	207.81421	-791.88177	59.34972	176.96007	-793.80206	168.66005	186.55026	-681.16010	-27.29604	1024.66138	-717.00366	-46.06149	482.83667	-875.99139	-78.70409	141.37393	-676.55560	192.33806	1039.90527	-655.87769	-46.49223	606.12585	-657.94177	-42.97168	556.15576	-561.58905	-44.16236	162.34332	-879.06213	70.92002	1049.06177				-622.92480	-28.73330	818.92926	-613.13403	142.86885	574.87372	-673.69519	55.61228	157.38788				-697.95673	-94.51366	851.21277	
238	4.740	-674.52368	243.34969	629.24622	-709.04980	77.21561	213.14754	-697.42981	266.18759	879.22473	-622.99158	202.24731	836.40192	-608.84705	203.34048	521.08746	-697.44629	265.41943	742.63556	-628.30951	61.84765	575.02570	-661.11206	241.65309	570.59009	-614.59528	-0.80945	505.08923	-710.09784	249.90927	500.96155	-693.11957	-67.91975	705.23688	-569.59735	-100.57459	1481.62219	-666.83429	-68.25668	161.56400	-704.91083	149.45100	211.48637	-767.24152	219.82928	206.55566	-882.60608	296.12878	144.55070	-602.82813	17.69622	167.83044	-674.61383	171.74484	154.34296	-595.24622	222.62271	173.81563	-667.16589	297.05753	162.10263	-561.31763	262.72104	165.33971	-527.90320	304.06342	146.53278	-561.63251	87.93542	1789.19495	-580.72260	262.11264	1485.25391	-625.62970	-80.05721	157.89632	-517.98761	-72.77704	142.90134	-630.10559	305.00858	163.01144	-549.94305	74.17075	1356.25146	-763.93213	-4.19660	207.59601	-792.06561	59.20435	176.82925	-793.83722	168.84181	186.46880	-678.53326	-27.38528	1027.38464	-719.30634	-44.95228	483.16092	-875.99139	-78.70409	141.37393	-673.59778	192.99887	1043.25342	-657.29993	-45.97032	607.04822	-660.05444	-41.65467	556.21814	-561.84320	-43.99588	162.29732	-876.66998	70.65100	1050.58264				-621.86859	-28.76448	819.10406	-616.90454	142.99921	574.25641	-674.10278	55.42565	158.09372				-696.25372	-94.75365	853.04633	
239	4.760	-676.40198	242.54724	629.86737	-709.44745	77.36622	213.48796	-694.98926	265.68564	880.31201	-621.45111	201.71210	836.48657	-611.16199	203.12091	522.00714	-696.92291	264.86154	743.90613	-630.78998	62.10670	575.65100	-663.10822	241.03622	571.19702	-616.74402	-0.43304	505.91541	-712.13794	249.96669	501.43835	-693.17078	-67.15935	706.65503	-572.92120	-100.92818	1486.90710	-666.74402	-68.25864	161.44185	-705.01361	149.77292	211.79608	-767.27289	219.92502	206.69258	-882.49646	295.94296	144.45332	-602.83069	17.65898	167.93326	-675.14594	172.03802	154.77187	-595.29260	222.66623	173.67003	-667.11462	297.07547	162.18161	-561.44061	262.62695	165.44644	-527.99841	304.00455	146.44089	-567.71906	87.74288	1794.45068	-584.57361	262.37375	1490.09229	-625.46844	-80.24443	157.82051	-517.88641	-72.67552	142.96140	-630.01007	304.97037	163.09570	-551.93970	74.09918	1361.57715	-764.24066	-4.62258	207.45642	-792.24170	58.87758	176.91443	-794.12213	168.95198	186.30473	-675.63794	-27.76650	1030.17188	-721.04559	-44.62489	482.69559	-876.00970	-78.74700	141.30463	-671.20258	192.37688	1046.12000	-659.35962	-45.50007	607.69525	-662.38361	-41.41510	557.07880	-561.76410	-43.67204	162.00343	-874.02893	70.91545	1051.70227				-620.54144	-28.08845	819.31439	-619.16779	142.05960	574.86536	-674.20789	55.32754	158.00314				-695.22675	-94.40260	854.27057	
